<?xml version="1.0" encoding="UTF-8"?>
<svg xmlns="http://www.w3.org/2000/svg" xmlns:xlink="http://www.w3.org/1999/xlink" width="64pt" height="64pt" viewBox="0 0 64 64" version="1.1">
<g id="surface1">
<path style=" stroke:none;fill-rule:nonzero;fill:rgb(0%,0%,0%);fill-opacity:1;" d="M 58 8 L 6 8 C 2.691406 8 0 10.691406 0 14 L 0 50 C 0 53.308594 2.691406 56 6 56 L 58 56 C 61.308594 56 64 53.308594 64 50 L 64 14 C 64 10.691406 61.308594 8 58 8 Z M 58 12 C 58.273438 12 58.53125 12.054688 58.765625 12.15625 L 32 35.351562 L 5.234375 12.15625 C 5.46875 12.054688 5.726562 12 6 12 Z M 58 52 L 6 52 C 4.898438 52 4 51.101562 4 50 L 4 16.378906 L 30.6875 39.511719 C 31.066406 39.835938 31.535156 40 32 40 C 32.464844 40 32.933594 39.839844 33.3125 39.511719 L 60 16.378906 L 60 50 C 60 51.101562 59.101562 52 58 52 Z M 58 52 "/>
</g>
</svg>
