<?xml version="1.0" encoding="UTF-8"?>
<svg xmlns="http://www.w3.org/2000/svg" xmlns:xlink="http://www.w3.org/1999/xlink" width="64pt" height="64pt" viewBox="0 0 64 64" version="1.1">
<g id="surface1">
<path d="M 55.609375 13.722656 L 42.277344 0.390625 C 42.027344 0.140625 41.6875 0 41.332031 0 L 13.332031 0 C 10.390625 0 8 2.390625 8 5.332031 L 8 58.667969 C 8 61.609375 10.390625 64 13.332031 64 L 50.667969 64 C 53.609375 64 56 61.609375 56 58.667969 L 56 14.667969 C 56 14.3125 55.859375 13.972656 55.609375 13.722656 Z M 42.667969 4.550781 L 51.449219 13.332031 L 45.332031 13.332031 C 43.863281 13.332031 42.667969 12.136719 42.667969 10.667969 Z M 53.332031 58.667969 C 53.332031 60.136719 52.136719 61.332031 50.667969 61.332031 L 13.332031 61.332031 C 11.863281 61.332031 10.667969 60.136719 10.667969 58.667969 L 10.667969 5.332031 C 10.667969 3.863281 11.863281 2.667969 13.332031 2.667969 L 40 2.667969 L 40 10.667969 C 40 13.609375 42.390625 16 45.332031 16 L 53.332031 16 Z M 53.332031 58.667969 "/>
<path d="M 38.796875 39.140625 C 37.5625 38.171875 36.390625 37.171875 35.609375 36.390625 C 34.59375 35.375 33.6875 34.390625 32.902344 33.453125 C 34.128906 29.664062 34.667969 27.707031 34.667969 26.667969 C 34.667969 22.242188 33.066406 21.332031 30.667969 21.332031 C 28.84375 21.332031 26.667969 22.28125 26.667969 26.792969 C 26.667969 28.785156 27.757812 31.199219 29.917969 34.007812 C 29.386719 35.621094 28.765625 37.480469 28.070312 39.578125 C 27.734375 40.585938 27.367188 41.515625 26.984375 42.378906 C 26.667969 42.519531 26.363281 42.660156 26.070312 42.808594 C 25.011719 43.335938 24.003906 43.8125 23.070312 44.257812 C 18.8125 46.273438 16 47.605469 16 50.238281 C 16 52.148438 18.078125 53.332031 20 53.332031 C 22.480469 53.332031 26.222656 50.023438 28.957031 44.445312 C 31.796875 43.324219 35.324219 42.496094 38.109375 41.976562 C 40.339844 43.691406 42.804688 45.332031 44 45.332031 C 47.304688 45.332031 48 43.421875 48 41.820312 C 48 38.667969 44.398438 38.667969 42.667969 38.667969 C 42.128906 38.667969 40.6875 38.824219 38.796875 39.140625 Z M 20 50.667969 C 19.238281 50.667969 18.722656 50.308594 18.667969 50.238281 C 18.667969 49.292969 21.484375 47.957031 24.210938 46.664062 C 24.386719 46.582031 24.5625 46.5 24.738281 46.417969 C 22.738281 49.320312 20.757812 50.667969 20 50.667969 Z M 29.332031 26.792969 C 29.332031 24 30.199219 24 30.667969 24 C 31.609375 24 32 24 32 26.667969 C 32 27.230469 31.625 28.636719 30.9375 30.832031 C 29.890625 29.21875 29.332031 27.835938 29.332031 26.792969 Z M 30.355469 41.125 C 30.4375 40.894531 30.519531 40.660156 30.597656 40.421875 C 31.09375 38.9375 31.539062 37.605469 31.933594 36.402344 C 32.488281 37.011719 33.085938 37.636719 33.722656 38.277344 C 33.972656 38.527344 34.59375 39.089844 35.417969 39.792969 C 33.777344 40.152344 32.027344 40.59375 30.355469 41.125 Z M 45.332031 41.820312 C 45.332031 42.417969 45.332031 42.667969 44.097656 42.675781 C 43.734375 42.597656 42.894531 42.101562 41.855469 41.394531 C 42.234375 41.355469 42.511719 41.332031 42.667969 41.332031 C 44.636719 41.332031 45.195312 41.527344 45.332031 41.820312 Z M 45.332031 41.820312 "/>
</g>
</svg>
