<?xml version="1.0" encoding="UTF-8"?>
<svg xmlns="http://www.w3.org/2000/svg" xmlns:xlink="http://www.w3.org/1999/xlink" width="64pt" height="64pt" viewBox="0 0 64 64" version="1.1">
<g id="surface1">
<path style=" stroke:none;fill-rule:nonzero;fill:rgb(0%,0%,0%);fill-opacity:1;" d="M 47.75 61.5 L 3.75 61.5 C 3.0625 61.5 2.5 60.9375 2.5 60.25 L 2.5 3.75 C 2.5 3.0625 3.0625 2.5 3.75 2.5 L 6.25 2.5 C 6.941406 2.5 7.5 1.941406 7.5 1.25 C 7.5 0.558594 6.941406 0 6.25 0 L 3.75 0 C 1.683594 0 0 1.683594 0 3.75 L 0 60.25 C 0 62.316406 1.683594 64 3.75 64 L 47.75 64 C 48.441406 64 49 63.441406 49 62.75 C 49 62.058594 48.441406 61.5 47.75 61.5 Z M 47.75 61.5 "/>
<path style=" stroke:none;fill-rule:nonzero;fill:rgb(0%,0%,0%);fill-opacity:1;" d="M 60.25 0 L 16.25 0 C 15.558594 0 15 0.558594 15 1.25 C 15 1.941406 15.558594 2.5 16.25 2.5 L 60.25 2.5 C 60.9375 2.5 61.5 3.0625 61.5 3.75 L 61.5 60.25 C 61.5 60.9375 60.9375 61.5 60.25 61.5 L 57.75 61.5 C 57.058594 61.5 56.5 62.058594 56.5 62.75 C 56.5 63.441406 57.058594 64 57.75 64 L 60.25 64 C 62.316406 64 64 62.316406 64 60.25 L 64 3.75 C 64 1.683594 62.316406 0 60.25 0 Z M 60.25 0 "/>
<path style=" stroke:none;fill-rule:nonzero;fill:rgb(0%,0%,0%);fill-opacity:1;" d="M 15.40625 22.09375 C 19.042969 22.09375 22 19.136719 22 15.5 C 22 11.863281 19.042969 8.90625 15.40625 8.90625 C 11.769531 8.90625 8.8125 11.863281 8.8125 15.5 C 8.8125 19.136719 11.769531 22.09375 15.40625 22.09375 Z M 15.40625 11.40625 C 17.664062 11.40625 19.5 13.242188 19.5 15.5 C 19.5 17.757812 17.664062 19.59375 15.40625 19.59375 C 13.148438 19.59375 11.3125 17.757812 11.3125 15.5 C 11.3125 13.242188 13.148438 11.40625 15.40625 11.40625 Z M 15.40625 11.40625 "/>
<path style=" stroke:none;fill-rule:nonzero;fill:rgb(0%,0%,0%);fill-opacity:1;" d="M 43.03125 22.71875 C 40.269531 22.71875 37.601562 23.679688 35.46875 25.378906 L 35.46875 24.59375 C 35.46875 23.902344 34.910156 23.34375 34.21875 23.34375 L 25.5 23.34375 C 24.808594 23.34375 24.25 23.902344 24.25 24.59375 L 24.25 53.84375 C 24.25 54.535156 24.808594 55.09375 25.5 55.09375 L 34.6875 55.09375 C 35.378906 55.09375 35.9375 54.535156 35.9375 53.84375 L 35.9375 36.960938 C 35.9375 34.875 37.632812 33.179688 39.71875 33.179688 C 41.804688 33.179688 43.5 34.875 43.5 36.960938 L 43.5 53.84375 C 43.5 54.535156 44.058594 55.09375 44.75 55.09375 L 53.9375 55.09375 C 54.628906 55.09375 55.1875 54.535156 55.1875 53.84375 L 55.1875 34.875 C 55.1875 28.171875 49.734375 22.71875 43.03125 22.71875 Z M 52.6875 52.59375 L 46 52.59375 L 46 36.960938 C 46 33.496094 43.183594 30.679688 39.71875 30.679688 C 36.253906 30.679688 33.4375 33.496094 33.4375 36.960938 L 33.4375 52.59375 L 26.75 52.59375 L 26.75 25.84375 L 32.96875 25.84375 L 32.96875 28.46875 C 32.96875 29.011719 33.316406 29.492188 33.832031 29.660156 C 34.34375 29.828125 34.910156 29.644531 35.226562 29.207031 C 37.050781 26.710938 39.96875 25.21875 43.03125 25.21875 C 48.355469 25.21875 52.6875 29.550781 52.6875 34.875 Z M 52.6875 52.59375 "/>
<path style=" stroke:none;fill-rule:nonzero;fill:rgb(0%,0%,0%);fill-opacity:1;" d="M 10.8125 23.34375 C 10.121094 23.34375 9.5625 23.902344 9.5625 24.59375 L 9.5625 53.84375 C 9.5625 54.535156 10.121094 55.09375 10.8125 55.09375 L 20 55.09375 C 20.691406 55.09375 21.25 54.535156 21.25 53.84375 L 21.25 24.59375 C 21.25 23.902344 20.691406 23.34375 20 23.34375 Z M 18.75 52.59375 L 12.0625 52.59375 L 12.0625 25.84375 L 18.75 25.84375 Z M 18.75 52.59375 "/>
<path style=" stroke:none;fill-rule:nonzero;fill:rgb(0%,0%,0%);fill-opacity:1;" d="M 11.25 2.5 C 11.941406 2.5 12.5 1.941406 12.5 1.25 C 12.5 0.558594 11.941406 0 11.25 0 C 10.558594 0 10 0.558594 10 1.25 C 10 1.941406 10.558594 2.5 11.25 2.5 Z M 11.25 2.5 "/>
<path style=" stroke:none;fill-rule:nonzero;fill:rgb(0%,0%,0%);fill-opacity:1;" d="M 52.75 61.5 C 52.058594 61.5 51.5 62.058594 51.5 62.75 C 51.5 63.441406 52.058594 64 52.75 64 C 53.441406 64 54 63.441406 54 62.75 C 54 62.058594 53.441406 61.5 52.75 61.5 Z M 52.75 61.5 "/>
</g>
</svg>
